<svg id="Layer_1" enable-background="new 0 0 512.035 512.035" height="512" viewBox="0 0 512.035 512.035" width="512" xmlns="http://www.w3.org/2000/svg"><g><path d="m261.148 443.607-.285-.048c-57.263-72.694-132.858-168.823-132.858-233.773 0-96.514 67.066-172.856 159.226-187.276-10.086-1.617-20.43-2.47-30.979-2.47h-.247c-107.34 0-194 87.016-194 194.356 0 64.95 78.88 176.766 136.143 249.459 27.617 35.056 79.016 37.375 109.855 7.064-17.716-2.693-34.621-11.783-46.855-27.312z" fill="#cee1f2"/><path d="m407.554 62.854c-40.333-40.506-94.066-62.814-151.302-62.814h-.247c-115.256-2.359-216.371 99.143-213.998 214.357 3.017 81.355 81.282 184.674 142.23 264.051 17.899 21.382 43.979 33.587 71.997 33.587 29-.001 55.926-13.068 73.872-35.852 45.214-56.186 142.845-191.325 139.898-261.788.001-57.277-22.178-111.095-62.45-151.541zm-108.87 388.578c-20.669 27.264-64.148 27.313-84.825.047-82.643-105.233-131.854-192.87-131.854-237.083 0-96.14 78.056-174.355 174-174.355h.247c95.808 0 173.753 78.216 173.753 174.355 0 44.694-47.865 131.09-131.321 237.036z" fill="#0023c4"/><path d="m258.005 299.035c-46.869 0-85-38.131-85-85s38.131-85 85-85 85 38.131 85 85-38.131 85-85 85zm0-130c-24.813 0-45 20.187-45 45s20.187 45 45 45 45-20.187 45-45-20.186-45-45-45z" fill="#ff5cf3"/></g></svg>